
<svg xmlns="http://www.w3.org/2000/svg" version="1.1" xmlns:xlink="http://www.w3.org/1999/xlink" preserveAspectRatio="none" x="0px" y="0px" width="128px" height="128px" viewBox="0 0 128 128">
<defs>
<g id="FLAG_copy_0_Layer2_0_FILL">
<path fill="#5C382E" stroke="none" d="
M 128.45 -123.1
L 72.75 -120.75 72.75 19.35 93.65 28.2 131.8 4.25 128.45 -123.1
M 72.75 -471.2
L 72.75 -458.85 119.5 -461.8 119.05 -475.95 108.35 -483.55 81.1 -483.55 72.75 -471.2 Z"/>

<path fill="#7D7773" stroke="none" d="
M 191.75 122.35
L 177.35 40.95 158.15 4.25 131.8 4.25 93.65 28.2 72.75 19.35 46.6 26.65 19.7 53.25 12.3 122.35 191.75 122.35 Z"/>

<path fill="#788A96" stroke="none" d="
M 119.5 -461.8
L 72.75 -458.85 -44.3 -450.3 -50.2 -433 -46.25 -416.05 250.3 -426.7 255.25 -458.75 248.7 -470.45 119.5 -461.8 Z"/>
</g>

<g id="FLAG_copy_0_Layer1_0_FILL">
<path fill="#000000" fill-opacity="0.047058823529411764" stroke="none" d="
M 250.3 -426.7
L 255.25 -458.75 -50.2 -433 -46.25 -416.05 250.3 -426.7
M 45.2 67.75
L 19.7 53.25 12.3 122.35 93.8 122.35 45.2 67.75 Z"/>

<path fill="#FFFFFF" fill-opacity="0.09803921568627451" stroke="none" d="
M 119.5 -461.8
L 72.75 -458.85 -44.3 -450.3 -50.2 -433 255.25 -458.75 248.7 -470.45 119.5 -461.8
M 119.05 -475.95
L 108.35 -483.55 81.1 -483.55 72.75 -471.2 119.05 -475.95
M 158.15 4.25
L 131.8 4.25 93.65 28.2 72.75 19.35 46.6 26.65 19.7 53.25 45.2 67.75 90.25 58.6 158.15 4.25 Z"/>

<path fill="#9B00FF" fill-opacity="0" stroke="none" d="
M 72.75 -471.2
L 72.75 -458.85 119.5 -461.8 119.05 -475.95 72.75 -471.2
M 191.75 122.35
L 177.35 40.95 90.25 58.6 45.2 67.75 93.8 122.35 191.75 122.35
M 131.55 -4.9
L 130.45 -45.95 72.75 -92.8 72.75 10.35 87.4 15.75 131.55 -4.9 Z"/>

<path fill="#000000" fill-opacity="0.2" stroke="none" d="
M 72.75 -120.75
L 72.75 -106.75 129.1 -97.7 128.45 -123.1 72.75 -120.75 Z"/>

<path fill="#FFFFFF" fill-opacity="0.2" stroke="none" d="
M 158.15 4.25
L 90.25 58.6 177.35 40.95 158.15 4.25 Z"/>

<path fill="#000000" fill-opacity="0.09803921568627451" stroke="none" d="
M 93.65 28.2
L 131.8 4.25 131.55 -4.9 87.4 15.75 72.75 10.35 72.75 19.35 93.65 28.2
M 130.45 -45.95
L 129.1 -97.7 72.75 -106.75 72.75 -92.8 130.45 -45.95 Z"/>
</g>

<g id="FLAG_copy_0_Layer0_0_FILL">
<path fill="#000000" fill-opacity="0.09803921568627451" stroke="none" d="
M 208.85 -446.15
L 170.05 -423.85 250.3 -426.7 253.3 -446.15 208.85 -446.15
M 119.5 -461.8
L 119.05 -475.95 108.35 -483.55 94.7 -483.55 87.45 -459.8 119.5 -461.8
M 33.65 97.45
L 16 87.8 12.3 122.35 44.75 122.35 33.65 97.45
M 191.75 122.35
L 182.95 72.6 124.8 122.35 191.75 122.35
M 96.3 -22.8
L 90.05 -29.05 83.2 -13.4 83.2 23.75 93.65 28.2 99.85 24.3 96.3 -22.8
M 119.1 -122.7
L 93.2 -121.6 101.7 -49.85 110.85 -41.6 119.4 -67.2 119.1 -122.7 Z"/>

<path fill="#00FF76" fill-opacity="0" stroke="none" d="
M 72.75 -471.2
L 72.75 -458.85 -44.3 -450.3 -47.25 -441.65 111.95 -453.2 125.55 -447.65 -50.1 -432.55 -46.25 -416.05 170.05 -423.85 208.85 -446.15 253.3 -446.15 255.25 -458.75 248.7 -470.45 119.5 -461.8 87.45 -459.8 94.7 -483.55 81.1 -483.55 72.75 -471.2
M 182.95 72.6
L 177.35 40.95 116.5 53.3 165.45 18.25 158.15 4.25 144.95 4.25 84.65 37.3 59.65 23 46.6 26.65 19.7 53.25 16 87.8 33.65 97.45 44.75 122.35 124.8 122.35 182.95 72.6 Z"/>

<path fill="#FFFFFF" fill-opacity="0.2" stroke="none" d="
M 125.55 -447.65
L 111.95 -453.2 -47.25 -441.65 -50.2 -433 -50.1 -432.55 125.55 -447.65 Z"/>

<path fill="#000000" fill-opacity="0.2" stroke="none" d="
M 144.95 4.25
L 131.8 4.25 99.85 24.3 93.65 28.2 83.2 23.75 72.75 19.35 59.65 23 84.65 37.3 144.95 4.25 Z"/>

<path fill="#FFFFFF" fill-opacity="0.09803921568627451" stroke="none" d="
M 177.35 40.95
L 165.45 18.25 116.5 53.3 177.35 40.95 Z"/>
</g>

<g id="FLAG_0_Layer2_0_FILL">
<path fill="#BC4CC5" stroke="none" d="
M 230.05 -128.4
L 239.25 -154.8 227.75 -425.9 -27.9 -416.7 -37.7 -128.2 -32.45 -116.5 128.45 -123.1 230.05 -128.4 Z"/>
</g>

<g id="FLAG_0_Layer1_0_FILL">
<path fill="#000000" fill-opacity="0.047058823529411764" stroke="none" d="
M 230.05 -128.4
L 239.25 -154.8 -37.7 -128.2 -32.45 -116.5 128.45 -123.1 230.05 -128.4 Z"/>

<path fill="#000000" fill-opacity="0.09803921568627451" stroke="none" d="
M 229 -396.7
L 227.75 -425.9 -27.9 -416.7 -28.3 -405.55 229 -396.7 Z"/>

<path fill="#9B00FF" fill-opacity="0" stroke="none" d="
M 239.25 -154.8
L 229 -396.7 -28.3 -405.55 -37.7 -128.2 239.25 -154.8 Z"/>
</g>

<g id="FLAG_0_Layer0_0_FILL">
<path fill="#000000" fill-opacity="0.047058823529411764" stroke="none" d="
M 230.65 -357.5
L 227.75 -425.9 -27.9 -416.7 -28.8 -389.95 230.65 -357.5 Z"/>

<path fill="#000000" fill-opacity="0.09803921568627451" stroke="none" d="
M 169.35 -125.25
L 194.75 -126.55 179.35 -219 169.35 -125.25
M 13.1 -118.35
L 5.3 -153.4 -2.55 -117.7 13.1 -118.35 Z"/>
</g>
</defs>

<g transform="matrix( 0.1999969482421875, 0, 0, 0.1999969482421875, 43.55,100.45) ">
<g transform="matrix( 1, 0, 0, 1, 0,0) ">
<use xlink:href="#FLAG_copy_0_Layer2_0_FILL"/>
</g>

<g transform="matrix( 1, 0, 0, 1, 0,0) ">
<use xlink:href="#FLAG_copy_0_Layer1_0_FILL"/>
</g>

<g transform="matrix( 1, 0, 0, 1, 0,0) ">
<use xlink:href="#FLAG_copy_0_Layer0_0_FILL"/>
</g>
</g>

<g transform="matrix( 0.199981689453125, 0, 0, 0.199981689453125, 43.45,100.5) ">
<g transform="matrix( 1, 0, 0, 1, 0,0) ">
<use xlink:href="#FLAG_0_Layer2_0_FILL"/>
</g>

<g transform="matrix( 1, 0, 0, 1, 0,0) ">
<use xlink:href="#FLAG_0_Layer1_0_FILL"/>
</g>

<g transform="matrix( 1, 0, 0, 1, 0,0) ">
<use xlink:href="#FLAG_0_Layer0_0_FILL"/>
</g>
</g>
</svg>
